HIERARCHY
ROOT hip
{
  OFFSET 0 0 0
  CHANNELS 6 Xposition Yposition Zposition Zrotation Yrotation Xrotation
  JOINT abdomen
  {
    OFFSET 0 20.6881 -0.73152
    CHANNELS 3 Zrotation Xrotation Yrotation
    JOINT chest
    {
      OFFSET 0 11.7043 -0.48768
      CHANNELS 3 Zrotation Xrotation Yrotation
      JOINT neck
      {
        OFFSET 0 22.1894 -2.19456
        CHANNELS 3 Zrotation Xrotation Yrotation
        JOINT head
        {
          OFFSET -0.24384 7.07133 1.2192
          CHANNELS 3 Zrotation Xrotation Yrotation
          JOINT leftEye
          {
            OFFSET 4.14528 8.04674 8.04672
            CHANNELS 3 Zrotation Xrotation Yrotation
            End Site
            {
              OFFSET 1 0 0
            }
          }
          JOINT rightEye
          {
            OFFSET -3.6576 8.04674 8.04672
            CHANNELS 3 Zrotation Xrotation Yrotation
            End Site
            {
              OFFSET 1 0 0
            }
          }
        }
      }
      JOINT rCollar
      {
        OFFSET -2.68224 19.2634 -4.8768
        CHANNELS 3 Zrotation Xrotation Yrotation
        JOINT rShldr
        {
          OFFSET -8.77824 -1.95073 1.46304
          CHANNELS 3 Zrotation Xrotation Yrotation
          JOINT rForeArm
          {
            OFFSET -28.1742 -1.7115 0.48768
            CHANNELS 3 Zrotation Xrotation Yrotation
            JOINT rHand
            {
              OFFSET -22.5879 0.773209 7.07136
              CHANNELS 3 Zrotation Xrotation Yrotation
              JOINT rThumb1
              {
                OFFSET -1.2192 -0.487915 3.41376
                CHANNELS 3 Zrotation Xrotation Yrotation
                JOINT rThumb2
                {
                  OFFSET -3.37035 -0.52449 3.41376
                  CHANNELS 3 Zrotation Xrotation Yrotation
                  End Site
                  {
                    OFFSET -1.78271 -1.18214 1.43049
                  }
                }
              }
              JOINT rIndex1
              {
                OFFSET -7.75947 0.938293 5.60832
                CHANNELS 3 Zrotation Xrotation Yrotation
                JOINT rIndex2
                {
                  OFFSET -2.54057 -0.884171 1.56538
                  CHANNELS 3 Zrotation Xrotation Yrotation
                  End Site
                  {
                    OFFSET -1.62519 -0.234802 1.16502
                  }
                }
              }
              JOINT rMid1
              {
                OFFSET -8.24714 1.18213 3.41376
                CHANNELS 3 Zrotation Xrotation Yrotation
                JOINT rMid2
                {
                  OFFSET -3.10165 -0.590103 1.0647
                  CHANNELS 3 Zrotation Xrotation Yrotation
                  End Site
                  {
                    OFFSET -2.48547 -0.328903 0.83742
                  }
                }
              }
              JOINT rRing1
              {
                OFFSET -8.82822 0.546677 1.51678
                CHANNELS 3 Zrotation Xrotation Yrotation
                JOINT rRing2
                {
                  OFFSET -2.60934 -0.819778 -0.0198488
                  CHANNELS 3 Zrotation Xrotation Yrotation
                  End Site
                  {
                    OFFSET -2.33842 -0.294052 0.168128
                  }
                }
              }
              JOINT rPinky1
              {
                OFFSET -8.27202 -0.0477905 -0.4584
                CHANNELS 3 Zrotation Xrotation Yrotation
                JOINT rPinky2
                {
                  OFFSET -1.82734 -0.647385 -0.700984
                  CHANNELS 3 Zrotation Xrotation Yrotation
                  End Site
                  {
                    OFFSET -1.69225 -0.51767 -0.607171
                  }
                }
              }
            }
          }
        }
      }
      JOINT lCollar
      {
        OFFSET 2.68224 19.2634 -4.8768
        CHANNELS 3 Zrotation Xrotation Yrotation
        JOINT lShldr
        {
          OFFSET 8.77824 -1.95073 1.46304
          CHANNELS 3 Zrotation Xrotation Yrotation
          JOINT lForeArm
          {
            OFFSET 28.1742 -1.7115 0.48768
            CHANNELS 3 Zrotation Xrotation Yrotation
            JOINT lHand
            {
              OFFSET 22.5879 0.773209 7.07136
              CHANNELS 3 Zrotation Xrotation Yrotation
              JOINT lThumb1
              {
                OFFSET 1.2192 -0.487915 3.41376
                CHANNELS 3 Zrotation Xrotation Yrotation
                JOINT lThumb2
                {
                  OFFSET 3.37035 -0.52449 3.41376
                  CHANNELS 3 Zrotation Xrotation Yrotation
                  End Site
                  {
                    OFFSET 1.78271 -1.18214 1.43049
                  }
                }
              }
              JOINT lIndex1
              {
                OFFSET 7.75947 0.938293 5.60832
                CHANNELS 3 Zrotation Xrotation Yrotation
                JOINT lIndex2
                {
                  OFFSET 2.54057 -0.884171 1.56538
                  CHANNELS 3 Zrotation Xrotation Yrotation
                  End Site
                  {
                    OFFSET 1.62519 -0.234802 1.16502
                  }
                }
              }
              JOINT lMid1
              {
                OFFSET 8.24714 1.18213 3.41376
                CHANNELS 3 Zrotation Xrotation Yrotation
                JOINT lMid2
                {
                  OFFSET 3.10165 -0.590103 1.0647
                  CHANNELS 3 Zrotation Xrotation Yrotation
                  End Site
                  {
                    OFFSET 2.48547 -0.328903 0.83742
                  }
                }
              }
              JOINT lRing1
              {
                OFFSET 8.82822 0.546677 1.51678
                CHANNELS 3 Zrotation Xrotation Yrotation
                JOINT lRing2
                {
                  OFFSET 2.60934 -0.819778 -0.0198488
                  CHANNELS 3 Zrotation Xrotation Yrotation
                  End Site
                  {
                    OFFSET 2.33842 -0.294052 0.168128
                  }
                }
              }
              JOINT lPinky1
              {
                OFFSET 8.27202 -0.0477905 -0.4584
                CHANNELS 3 Zrotation Xrotation Yrotation
                JOINT lPinky2
                {
                  OFFSET 1.82734 -0.647385 -0.700984
                  CHANNELS 3 Zrotation Xrotation Yrotation
                  End Site
                  {
                    OFFSET 1.69225 -0.51767 -0.607171
                  }
                }
              }
            }
          }
        }
      }
    }
  }
  JOINT rButtock
  {
    OFFSET -8.77824 4.35084 1.2192
    CHANNELS 3 Zrotation Xrotation Yrotation
    JOINT rThigh
    {
      OFFSET 0 -1.70687 -2.19456
      CHANNELS 3 Zrotation Xrotation Yrotation
      JOINT rShin
      {
        OFFSET 0 -36.8199 0.73152
        CHANNELS 3 Zrotation Xrotation Yrotation
        JOINT rFoot
        {
          OFFSET 0.73152 -45.1104 -5.12064
          CHANNELS 3 Zrotation Xrotation Yrotation
          End Site
          {
            OFFSET -1.1221 -3.69964 12.103
          }
        }
      }
    }
  }
  JOINT lButtock
  {
    OFFSET 8.77824 4.35084 1.2192
    CHANNELS 3 Zrotation Xrotation Yrotation
    JOINT lThigh
    {
      OFFSET 0 -1.70687 -2.19456
      CHANNELS 3 Zrotation Xrotation Yrotation
      JOINT lShin
      {
        OFFSET 0 -36.8199 0.73152
        CHANNELS 3 Zrotation Xrotation Yrotation
        JOINT lFoot
        {
          OFFSET -0.73152 -45.1104 -5.12064
          CHANNELS 3 Zrotation Xrotation Yrotation
          End Site
          {
            OFFSET 1.1221 -3.69964 12.103
          }
        }
      }
    }
  }
}
MOTION
Frames:	6
Frame Time:	0.00833333
-46.5432 84.1002 35.311 0.0 0.0 0.0 -1.51926 -0.00282952 -0.0413934 -0.418699 0.00102595 -0.0725112 -1.68284e-15 7.95139e-16 3.23025e-16 -4.9634e-15 9.54166e-15 8.40176e-16 -0.0 0.0 0.0 -0.0 0.0 0.0 -5.4803e-16 -5.04727e-18 3.47873e-16 -1.55385e-14 -6.21202e-18 3.37934e-15 -2.79491e-13 8.18993e-14 5.40694e-14 -3.21171e-12 -8.70677e-14 5.37514e-13 -7.57626e-12 -1.3253e-14 1.31357e-12 -1.31035e-11 -2.22639e-14 2.25342e-12 -7.57409e-12 -1.47101e-14 1.29449e-12 7.73091 5.47488 0.417314 -7.57722e-12 -1.35174e-14 1.30721e-12 2.90554 0.965183 0.102902 -7.56845e-12 -1.33186e-14 1.308e-12 10.2786 0.731801 0.0259123 -7.58503e-12 -9.1441e-15 1.31357e-12 2.22167 -0.733487 -0.20892 -8.4352e-16 -2.71776e-18 -4.96962e-17 -1.70684e-14 1.98785e-16 2.18663e-15 -2.85902e-13 -8.32908e-14 6.04305e-14 -3.22635e-12 7.66812e-14 5.53417e-13 -7.60886e-12 -1.82839e-14 1.30403e-12 -1.31273e-11 -3.49861e-14 2.24627e-12 -7.61544e-12 -1.70955e-14 1.31357e-12 -7.73091 5.47488 -0.417314 -7.60774e-12 -1.87852e-14 1.30721e-12 -2.90554 0.965183 -0.102902 -7.61093e-12 -1.83876e-14 1.30164e-12 -10.2786 0.731801 -0.0259123 -7.59695e-12 -1.39149e-14 1.29131e-12 -2.22167 -0.733487 0.20892 -2.03217e-16 0.0 -3.88251e-19 -0.640631 -1.92323 -0.00643477 -0.00925398 -2.07856 -0.076422 -0.512054 3.99733 0.140297 2.03217e-16 0.0 3.88251e-19 -1.66983 -6.49781 0.154701 -0.00230994 6.20798 -0.0679773 0.534145 0.285498 -0.0665799
-46.6377 81.9912 29.86 -41.0982 83.3834 -22.2811 -0.897151 3.68061 0.585334 1.12086 0.981859 0.163062 0.677562 1.33322 -0.186315 -2.57734 7.05039 1.05389 -0.0 0.0 0.0 -0.0 0.0 0.0 6.79433e-14 1.52447e-13 -3.70442e-14 20.9428 17.3586 6.40017 -9.65068 -6.50962 12.0674 0.434487 -14.7145 -1.83015 1.79766e-10 3.75114e-10 3.86612e-10 2.92361e-10 6.61901e-10 6.72504e-10 1.79768e-10 3.7511e-10 3.86591e-10 7.73091 5.47488 0.417314 1.79765e-10 3.75113e-10 3.86608e-10 2.90554 0.965183 0.102902 1.79774e-10 3.75114e-10 3.86608e-10 10.2786 0.731801 0.0259123 1.79758e-10 3.75117e-10 3.86614e-10 2.22167 -0.733487 -0.20892 6.76525e-14 1.52446e-13 -3.74612e-14 -22.453 20.8196 -7.14326 10.7976 -7.67627 -12.7966 -0.559725 -16.7327 2.00528 1.00441e-10 -6.92033e-10 4.83693e-10 1.49258e-10 -1.19794e-09 8.37028e-10 1.00437e-10 -6.92032e-10 4.83702e-10 -7.73091 5.47488 -0.417314 1.00443e-10 -6.9203e-10 4.83694e-10 -2.90554 0.965183 -0.102902 1.00438e-10 -6.92033e-10 4.83692e-10 -10.2786 0.731801 -0.0259123 1.00451e-10 -6.92029e-10 4.83683e-10 -2.22167 -0.733487 0.20892 -2.03217e-16 0.0 -3.88251e-19 -0.94013 -12.1402 -0.386308 -0.0176361 5.36311 0.0208741 -0.479144 2.86224 -0.7115 2.03217e-16 0.0 3.88251e-19 1.11036 -15.5993 1.43339 -0.0276787 12.2776 -0.191886 0.37367 -1.22352 -1.09745
-46.6338 81.9921 29.8488 -41.188 83.4626 -22.3858 -0.328434 7.57283 1.25575 2.73886 2.01753 0.412079 1.40482 2.74243 -0.384296 -5.59216 14.4977 2.22111 -0.0 0.0 0.0 -0.0 0.0 0.0 1.4461e-13 3.06056e-13 -7.81441e-14 38.08 34.9249 15.3821 -16.9046 -12.421 25.2939 -0.273663 -30.2139 -4.21446 4.04266e-10 7.92475e-10 8.0977e-10 6.60058e-10 1.39957e-09 1.40939e-09 4.0427e-10 7.9247e-10 8.09746e-10 7.73091 5.47488 0.417314 4.04265e-10 7.92475e-10 8.0977e-10 2.90554 0.965183 0.102902 4.04275e-10 7.92475e-10 8.09769e-10 10.2786 0.731801 0.0259123 4.0426e-10 7.92479e-10 8.09776e-10 2.22167 -0.733487 -0.20892 1.4432e-13 3.06051e-13 -7.85852e-14 -38.8928 41.6236 -18.5114 18.5154 -14.5048 -27.0142 0.365438 -34.3491 4.78667 2.00343e-10 -1.46103e-09 1.02131e-09 2.94988e-10 -2.52663e-09 1.7664e-09 2.00341e-10 -1.46102e-09 1.02131e-09 -7.73091 5.47488 -0.417314 2.00345e-10 -1.46102e-09 1.0213e-09 -2.90554 0.965183 -0.102902 2.0034e-10 -1.46102e-09 1.02131e-09 -10.2786 0.731801 -0.0259123 2.0035e-10 -1.46102e-09 1.0213e-09 -2.22167 -0.733487 0.20892 -2.03217e-16 0.0 -3.88251e-19 -1.4165 -22.94 -0.833629 -0.0544397 13.2325 0.126897 -0.481194 1.65999 -1.61272 2.03217e-16 0.0 3.88251e-19 4.53497 -25.2 2.96088 -0.0243722 18.6939 -0.331641 0.145047 -2.81704 -2.18989
-46.6563 81.9916 29.8459 -41.548 83.5109 -22.7034 0.101536 11.0423 1.8698 4.17577 2.94336 0.634974 2.05875 3.99948 -0.560159 -8.55732 21.1215 3.36399 -0.0 0.0 0.0 -0.0 0.0 0.0 2.04926e-13 4.57352e-13 -1.11828e-13 46.3851 48.7592 28.4815 -21.0728 -16.0439 37.669 -2.43807 -43.9266 -7.38296 5.54449e-10 1.12537e-09 1.15721e-09 9.0329e-10 1.98575e-09 2.013e-09 5.54453e-10 1.12536e-09 1.15718e-09 7.73091 5.47488 0.417314 5.54448e-10 1.12537e-09 1.15721e-09 2.90554 0.965183 0.102902 5.54458e-10 1.12537e-09 1.15721e-09 10.2786 0.731801 0.0259123 5.54445e-10 1.12537e-09 1.15722e-09 2.22167 -0.733487 -0.20892 2.04645e-13 4.57344e-13 -1.12284e-13 -41.217 56.7657 -38.6651 22.5328 -18.3855 -40.4933 3.46459 -49.8808 8.96187 3.16541e-10 -2.07606e-09 1.44847e-09 4.74029e-10 -3.59375e-09 2.50659e-09 3.16541e-10 -2.07606e-09 1.44848e-09 -7.73091 5.47488 -0.417314 3.16543e-10 -2.07605e-09 1.44847e-09 -2.90554 0.965183 -0.102902 3.16537e-10 -2.07606e-09 1.44847e-09 -10.2786 0.731801 -0.0259123 3.16546e-10 -2.07606e-09 1.44847e-09 -2.22167 -0.733487 0.20892 -2.03217e-16 0.0 -3.88251e-19 -2.01142 -32.5681 -1.32918 -0.113427 20.2463 0.229256 -0.514534 0.592165 -2.41188 2.03217e-16 0.0 3.88251e-19 8.11398 -33.7303 4.61198 0.0078712 24.4164 -0.469308 -0.110471 -4.23577 -3.16711
-46.6767 81.9906 29.8586 -42.2503 83.5061 -23.3598 0.358863 13.4599 2.31339 5.17698 3.59476 0.791824 2.51077 4.87626 -0.67956 -10.8011 25.7145 4.25462 -0.0 0.0 0.0 -0.0 0.0 0.0 2.24363e-13 6.02868e-13 -1.26974e-13 45.7432 56.1564 43.0695 -22.9741 -17.2937 46.5108 -5.48602 -53.3606 -10.8925 5.18838e-10 1.24709e-09 1.31535e-09 8.3536e-10 2.19318e-09 2.28346e-09 5.18842e-10 1.24708e-09 1.31532e-09 7.73091 5.47488 0.417314 5.18837e-10 1.24709e-09 1.31535e-09 2.90554 0.965183 0.102902 5.18847e-10 1.24709e-09 1.31535e-09 10.2786 0.731801 0.0259123 5.18834e-10 1.24709e-09 1.31536e-09 2.22167 -0.733487 -0.20892 2.2411e-13 6.02859e-13 -1.27421e-13 -31.309 62.3723 -63.0591 24.1547 -19.389 -50.1025 8.3917 -60.451 14.3539 4.7348e-10 -2.30621e-09 1.59952e-09 7.36348e-10 -4.00693e-09 2.77383e-09 4.7348e-10 -2.30621e-09 1.59953e-09 -7.73091 5.47488 -0.417314 4.73482e-10 -2.3062e-09 1.59951e-09 -2.90554 0.965183 -0.102902 4.73475e-10 -2.30621e-09 1.59952e-09 -10.2786 0.731801 -0.0259123 4.73482e-10 -2.30621e-09 1.59952e-09 -2.22167 -0.733487 0.20892 -2.03217e-16 0.0 -3.88251e-19 -2.55666 -39.2721 -1.78096 -0.170945 25.121 0.307815 -0.554036 -0.140471 -2.95715 2.03217e-16 0.0 3.88251e-19 10.9938 -39.6497 6.02135 0.0493612 28.4053 -0.576262 -0.317849 -5.22303 -3.84859
-46.6904 81.9907 29.8658 -42.6625 83.5076 -23.7452 0.456179 14.4013 2.49648 5.57983 3.867 0.855329 2.66684 5.22226 -0.718486 -11.7303 27.4806 4.64466 -0.0 0.0 0.0 -0.0 0.0 0.0 1.76872e-13 8.41442e-13 -1.17001e-13 43.5005 58.2348 50.4847 -23.561 -17.4562 49.9778 -7.27668 -57.0273 -12.8154 1.5203e-10 1.04106e-09 1.19394e-09 2.1029e-10 1.80976e-09 2.05963e-09 1.52036e-10 1.04105e-09 1.19392e-09 7.73091 5.47488 0.417314 1.5203e-10 1.04105e-09 1.19394e-09 2.90554 0.965183 0.102902 1.5204e-10 1.04106e-09 1.19394e-09 10.2786 0.731801 0.0259123 1.52026e-10 1.04106e-09 1.19395e-09 2.22167 -0.733487 -0.20892 1.76689e-13 8.41433e-13 -1.17402e-13 -25.6791 62.7289 -74.1516 24.6182 -19.3338 -53.7914 11.5648 -64.4425 17.646 7.52625e-10 -1.9391e-09 1.31764e-09 1.22945e-09 -3.41288e-09 2.30231e-09 7.52624e-10 -1.9391e-09 1.31764e-09 -7.73091 5.47488 -0.417314 7.52627e-10 -1.93909e-09 1.31763e-09 -2.90554 0.965183 -0.102902 7.52621e-10 -1.9391e-09 1.31764e-09 -10.2786 0.731801 -0.0259123 7.52627e-10 -1.9391e-09 1.31763e-09 -2.22167 -0.733487 0.20892 -2.03217e-16 0.0 -3.88251e-19 -2.81272 -41.8883 -2.02762 -0.197563 26.9953 0.340156 -0.569559 -0.398674 -3.13889 2.03217e-16 0.0 3.88251e-19 12.2379 -41.9692 6.64336 0.0710897 29.9678 -0.623044 -0.406742 -5.61133 -4.11101
